<?xml version="1.0" encoding="UTF-8"?>
<!DOCTYPE svg PUBLIC "-//W3C//DTD SVG 1.1//EN" "http://www.w3.org/Graphics/SVG/1.1/DTD/svg11.dtd">
<svg xmlns="http://www.w3.org/2000/svg" version="1.1" width="71px" height="54px" style="shape-rendering:geometricPrecision; text-rendering:geometricPrecision; image-rendering:optimizeQuality; fill-rule:evenodd; clip-rule:evenodd" xmlns:xlink="http://www.w3.org/1999/xlink">
<g><path style="opacity:1" fill="#fbfafb" d="M -0.5,-0.5 C 23.1667,-0.5 46.8333,-0.5 70.5,-0.5C 70.5,17.5 70.5,35.5 70.5,53.5C 46.8333,53.5 23.1667,53.5 -0.5,53.5C -0.5,35.5 -0.5,17.5 -0.5,-0.5 Z"/></g>
<g><path style="opacity:1" fill="#40395c" d="M 14.5,8.5 C 16.5273,8.33788 18.5273,8.50454 20.5,9C 22.1986,13.6422 20.5319,15.6422 15.5,15C 13.3162,13.1024 12.9829,10.9358 14.5,8.5 Z"/></g>
<g><path style="opacity:1" fill="#847e99" d="M 37.5,13.5 C 37.5,14.1667 37.1667,14.5 36.5,14.5C 35.8365,16.0419 35.1698,17.7086 34.5,19.5C 33.8313,17.3691 33.1646,15.3691 32.5,13.5C 31.6618,13.1583 31.3284,12.4916 31.5,11.5C 33.2027,12.6602 33.8693,11.9935 33.5,9.5C 34.3132,8.34732 35.3132,8.34732 36.5,9.5C 36.76,10.9049 37.0934,12.2382 37.5,13.5 Z"/></g>
<g><path style="opacity:1" fill="#231c3d" d="M 33.5,9.5 C 33.8693,11.9935 33.2027,12.6602 31.5,11.5C 31.8333,10.5 32.5,9.83333 33.5,9.5 Z"/></g>
<g><path style="opacity:1" fill="#443e5d" d="M 49.5,7.5 C 55.4877,7.66395 56.821,10.164 53.5,15C 50.5037,15.6655 48.5037,14.4989 47.5,11.5C 48.6302,10.3777 49.2969,9.04432 49.5,7.5 Z"/></g>
<g><path style="opacity:1" fill="#3a315b" d="M 45.5,19.5 C 43.7541,21.2516 41.7541,22.5849 39.5,23.5C 39.5,22.1667 39.5,20.8333 39.5,19.5C 38.5,19.5 37.5,19.5 36.5,19.5C 36.5,17.8333 36.5,16.1667 36.5,14.5C 37.1667,14.5 37.5,14.1667 37.5,13.5C 38.584,9.90092 40.9173,8.06759 44.5,8C 46.8211,11.6233 47.1544,15.4566 45.5,19.5 Z"/></g>
<g><path style="opacity:1" fill="#9991b7" d="M 23.5,10.5 C 22.4506,16.2135 24.1173,20.8802 28.5,24.5C 27.8333,24.5 27.1667,24.5 26.5,24.5C 24.3963,22.6282 23.063,20.2948 22.5,17.5C 22.1984,14.9407 22.5318,12.6074 23.5,10.5 Z"/></g>
<g><path style="opacity:1" fill="#362e57" d="M 31.5,11.5 C 31.3284,12.4916 31.6618,13.1583 32.5,13.5C 32.5,15.5 32.5,17.5 32.5,19.5C 31.5,19.5 30.5,19.5 29.5,19.5C 29.7845,21.4147 29.4511,23.0813 28.5,24.5C 24.1173,20.8802 22.4506,16.2135 23.5,10.5C 23.4148,9.00475 24.0815,8.00475 25.5,7.5C 27.7901,8.46708 29.7901,9.80042 31.5,11.5 Z"/></g>
<g><path style="opacity:1" fill="#9992b2" d="M 45.5,19.5 C 44.925,21.4113 43.925,23.078 42.5,24.5C 41.209,24.7373 40.209,24.404 39.5,23.5C 41.7541,22.5849 43.7541,21.2516 45.5,19.5 Z"/></g>
<g><path style="opacity:1" fill="#352e54" d="M 52.5,24.5 C 50.0872,26.0507 47.4206,26.7174 44.5,26.5C 44.5,25.1667 43.8333,24.5 42.5,24.5C 43.925,23.078 44.925,21.4113 45.5,19.5C 49.0358,16.9894 52.7025,16.9894 56.5,19.5C 55.8671,21.7855 54.5338,23.4522 52.5,24.5 Z"/></g>
<g><path style="opacity:1" fill="#3a3258" d="M 22.5,17.5 C 23.063,20.2948 24.3963,22.6282 26.5,24.5C 24.8235,25.1834 24.1568,26.5168 24.5,28.5C 20.4862,28.6655 16.4862,28.4988 12.5,28C 13.4709,26.5187 14.8042,25.6854 16.5,25.5C 18.1195,27.2385 20.1195,27.7385 22.5,27C 20.3594,26.4275 18.3594,25.5942 16.5,24.5C 14.9458,23.0858 13.6125,21.4192 12.5,19.5C 13.0253,18.8076 13.6919,18.3076 14.5,18C 17.146,17.5026 19.8127,17.3359 22.5,17.5 Z"/></g>
<g><path style="opacity:1" fill="#b6afd0" d="M 16.5,24.5 C 18.3594,25.5942 20.3594,26.4275 22.5,27C 20.1195,27.7385 18.1195,27.2385 16.5,25.5C 16.5,25.1667 16.5,24.8333 16.5,24.5 Z"/></g>
<g><path style="opacity:1" fill="#a39cba" d="M 52.5,24.5 C 52.5,24.8333 52.5,25.1667 52.5,25.5C 50.9275,26.6873 49.2608,27.6873 47.5,28.5C 45.8212,28.7148 44.8212,28.0481 44.5,26.5C 47.4206,26.7174 50.0872,26.0507 52.5,24.5 Z"/></g>
<g><path style="opacity:1" fill="#3d3755" d="M 52.5,25.5 C 54.1958,25.6854 55.5291,26.5187 56.5,28C 53.5184,28.498 50.5184,28.6646 47.5,28.5C 49.2608,27.6873 50.9275,26.6873 52.5,25.5 Z"/></g>
<g><path style="opacity:1" fill="#5a5471" d="M 19.5,31.5 C 16.6631,33.2607 14.3298,32.7607 12.5,30C 16.5,29.3333 20.5,29.3333 24.5,30C 22.6183,30.1981 20.9516,30.6981 19.5,31.5 Z"/></g>
<g><path style="opacity:1" fill="#534e69" d="M 44.5,29.5 C 48.5138,29.3345 52.5138,29.5012 56.5,30C 55.6195,30.7083 54.9528,31.5416 54.5,32.5C 51.1286,31.284 47.7953,30.284 44.5,29.5 Z"/></g>
<g><path style="opacity:1" fill="#beb8d5" d="M 44.5,29.5 C 47.7953,30.284 51.1286,31.284 54.5,32.5C 54.1667,33.1667 53.8333,33.8333 53.5,34.5C 51.0034,32.1289 48.0034,31.1289 44.5,31.5C 44.67,32.8221 44.3366,33.9887 43.5,35C 44.8721,36.2419 45.8721,37.7419 46.5,39.5C 48.396,40.4656 50.396,40.7989 52.5,40.5C 50.7354,41.4614 48.7354,41.7947 46.5,41.5C 45.0911,39.0283 43.4244,36.695 41.5,34.5C 42.9348,33.0867 43.9348,31.42 44.5,29.5 Z"/></g>
<g><path style="opacity:1" fill="#b3aec6" d="M 25.5,33.5 C 27.1667,33.5 28.8333,33.5 30.5,33.5C 30.5,35.1667 30.5,36.8333 30.5,38.5C 32.5,38.5 34.5,38.5 36.5,38.5C 36.5,40.5 36.5,42.5 36.5,44.5C 35.8365,42.9581 35.1698,41.2914 34.5,39.5C 33.8302,41.2914 33.1635,42.9581 32.5,44.5C 32.5,42.8333 32.5,41.1667 32.5,39.5C 31.5,39.5 30.5,39.5 29.5,39.5C 29.7852,37.712 29.4519,36.0453 28.5,34.5C 27.1482,35.5244 25.8149,36.5244 24.5,37.5C 24.8333,36.1667 25.1667,34.8333 25.5,33.5 Z"/></g>
<g><path style="opacity:1" fill="#362d57" d="M 19.5,31.5 C 21.8863,31.2587 23.8863,31.9254 25.5,33.5C 25.1667,34.8333 24.8333,36.1667 24.5,37.5C 21.3432,40.5351 17.6766,41.2017 13.5,39.5C 12.475,39.1034 12.3083,38.4368 13,37.5C 15.0627,35.2659 17.2294,33.2659 19.5,31.5 Z"/></g>
<g><path style="opacity:1" fill="#322a52" d="M 53.5,34.5 C 57.6574,37.4184 57.3241,39.4184 52.5,40.5C 50.396,40.7989 48.396,40.4656 46.5,39.5C 45.8721,37.7419 44.8721,36.2419 43.5,35C 44.3366,33.9887 44.67,32.8221 44.5,31.5C 48.0034,31.1289 51.0034,32.1289 53.5,34.5 Z"/></g>
<g><path style="opacity:1" fill="#d7d2e3" d="M 24.5,37.5 C 22.6818,41.0785 22.3485,44.7452 23.5,48.5C 22.5,47.1667 21.5,47.1667 20.5,48.5C 20.5,46.8333 20.5,45.1667 20.5,43.5C 18.8333,43.5 17.1667,43.5 15.5,43.5C 14.3995,42.3951 13.7329,41.0618 13.5,39.5C 17.6766,41.2017 21.3432,40.5351 24.5,37.5 Z"/></g>
<g><path style="opacity:1" fill="#382f58" d="M 32.5,44.5 C 31.6618,44.8417 31.3284,45.5084 31.5,46.5C 29.8143,48.0165 27.981,49.3498 26,50.5C 24.699,50.3613 23.8656,49.6946 23.5,48.5C 22.3485,44.7452 22.6818,41.0785 24.5,37.5C 25.8149,36.5244 27.1482,35.5244 28.5,34.5C 29.4519,36.0453 29.7852,37.712 29.5,39.5C 30.5,39.5 31.5,39.5 32.5,39.5C 32.5,41.1667 32.5,42.8333 32.5,44.5 Z"/></g>
<g><path style="opacity:1" fill="#7c7494" d="M 36.5,44.5 C 37.3382,44.8417 37.6716,45.5084 37.5,46.5C 35.6275,50.3357 33.6275,50.3357 31.5,46.5C 31.3284,45.5084 31.6618,44.8417 32.5,44.5C 33.1635,42.9581 33.8302,41.2914 34.5,39.5C 35.1698,41.2914 35.8365,42.9581 36.5,44.5 Z"/></g>
<g><path style="opacity:1" fill="#39305b" d="M 41.5,34.5 C 43.4244,36.695 45.0911,39.0283 46.5,41.5C 47.112,50.9523 44.112,52.619 37.5,46.5C 37.6716,45.5084 37.3382,44.8417 36.5,44.5C 36.5,42.5 36.5,40.5 36.5,38.5C 37.5,38.5 38.5,38.5 39.5,38.5C 39.1568,36.5168 39.8235,35.1834 41.5,34.5 Z"/></g>
<g><path style="opacity:1" fill="#3c3554" d="M 15.5,43.5 C 17.1667,43.5 18.8333,43.5 20.5,43.5C 20.5,45.1667 20.5,46.8333 20.5,48.5C 17.2113,51.5171 14.8779,50.8504 13.5,46.5C 13.4534,44.9623 14.1201,43.9623 15.5,43.5 Z"/></g>
<g><path style="opacity:1" fill="#3e375b" d="M 49.5,43.5 C 55.5548,42.9421 56.8881,45.1088 53.5,50C 52.1011,50.5946 50.7678,50.4279 49.5,49.5C 48.3058,47.4844 48.3058,45.4844 49.5,43.5 Z"/></g>
</svg>
